
<svg width="78px" height="78px" viewBox="0 0 78 78" version="1.1" xmlns="http://www.w3.org/2000/svg" xmlns:xlink="http://www.w3.org/1999/xlink">
    <!-- Generator: Sketch 43.1 (39012) - http://www.bohemiancoding.com/sketch -->
    <desc>Created with Sketch.</desc>
    <defs></defs>
    <g id="Page-1" stroke="none" stroke-width="1" fill="none" fill-rule="evenodd">
        <g id="03-copy-4" transform="translate(-924.000000, -741.000000)">
            <g id="Mask-+-Oval-103-+-Path-134" transform="translate(925.000000, 742.000000)">
                <circle id="Oval-103" stroke="#E36DBE" stroke-width="2" cx="38" cy="38" r="38"></circle>
                <path d="M29.8589473,50.1615273 L21.5034064,41.0219932 C20.7581338,40.2067924 20.8523981,38.978031 21.7063636,38.2836478 L21.4867812,38.4621964 C22.344144,37.7650508 23.6534461,37.8552336 24.4083683,38.6606156 L31.4974032,46.2234889 C31.8770489,46.6285106 32.4973222,46.631762 32.8820789,46.2315246 L51.7502386,26.6042052 C52.5186081,25.8049203 53.7728724,25.7985901 54.5472805,26.5855585 L54.5806186,26.6194373 C55.3570127,27.4084239 55.3500482,28.6821876 54.5684814,29.4610615 L33.1469982,50.8087376 C32.363901,51.5891367 31.127061,51.5585593 30.3898486,50.7464008 L29.8589473,50.1615273 Z" id="Path-134" fill="#E36DBE"></path>
            </g>
        </g>
    </g>
</svg>