
<svg width="35px" height="44px" viewBox="0 0 35 44" version="1.1" xmlns="http://www.w3.org/2000/svg" xmlns:xlink="http://www.w3.org/1999/xlink">
    <!-- Generator: Sketch 43.1 (39012) - http://www.bohemiancoding.com/sketch -->
    <desc>Created with Sketch.</desc>
    <defs></defs>
    <g id="Page-1" stroke="none" stroke-width="1" fill="none" fill-rule="evenodd">
        <g id="03-copy-4" transform="translate(-943.000000, -478.000000)" fill="#FFFFFF">
            <path d="M968.10025,502.24808 L965.62575,504.996023 L971.29925,510.911203 L969.25,510.911203 C963.4505,510.911203 958.75,506.257373 958.75,500.515456 C958.75,492.860721 952.4815,486.65446 944.75,486.65446 L943,486.65446 L943,490.119709 L944.75,490.119709 C950.5495,490.119709 955.25,494.773538 955.25,500.515456 C955.25,508.170191 961.5185,514.376452 969.25,514.376452 L971.29925,514.376452 L965.62575,519.697342 L968.10025,522 C976.17125,513.919039 974.087,516.006852 978,512.085922 C974.82375,508.918685 976.82225,510.906005 968.10025,502.24808 M959.24875,490.526875 C959.947,491.547391 960.52625,492.798346 960.9935,493.957472 C964.329,489.752392 968.991,490.119709 971.29925,490.119709 L965.62575,495.440599 L968.10025,497.743257 C976.81875,489.022957 974.81675,491.027604 978,487.829179 C974.10275,483.9481 976.26575,486.094822 968.10025,478 L965.62575,480.742745 L971.29925,486.65446 C968.82825,486.65446 963.45225,486.275015 959.24875,490.526875 M943,510.911203 L943,514.376452 C944.99325,514.376452 949.91075,514.813073 954.75825,509.89935 C954.06175,508.880567 953.47025,507.936287 953.003,506.778893 C949.38575,511.337429 944.78325,510.911203 943,510.911203" id="shuffle-[#240]"></path>
        </g>
    </g>
</svg>