<svg width="28px" height="24px" viewBox="0 0 28 24" version="1.1" xmlns="http://www.w3.org/2000/svg" xmlns:xlink="http://www.w3.org/1999/xlink">
    <!-- Generator: Sketch 43.1 (39012) - http://www.bohemiancoding.com/sketch -->
    <desc>Created with Sketch.</desc>
    <defs></defs>
    <g id="Page-1" stroke="none" stroke-width="1" fill="none" fill-rule="evenodd">
        <g id="03-copy-3" transform="translate(-39.000000, -39.000000)" stroke="#FFFFFF" fill="#FFFFFF">
            <g id="Back" transform="translate(39.000000, 39.000000)">
                <path d="M23.5770774,9.00440559 C24.0013522,9.35687014 24.6372249,9.30731049 25.0041252,8.88591666 L24.9451438,8.9536582 C25.3090057,8.53575402 25.2598019,7.91047149 24.8315697,7.55399188 L14.8763784,-0.733153577 C14.4497913,-1.08826377 13.7598019,-1.08963319 13.3315697,-0.733153577 L3.37637844,7.55399188 C2.94979128,7.90910207 2.87587105,8.56176764 3.2057265,9.00431975 L3.07971467,8.83525539 C3.41205337,9.28113917 4.02632226,9.36164798 4.4568084,9.01093352 L13.0585195,2.00317151 L13.0585195,24.623998 C13.0585195,25.176208 13.5019476,25.6238625 14.0549843,25.6238625 L14.1529638,25.6238625 C14.7032961,25.6238625 15.1494286,25.1730999 15.1494286,24.623998 L15.1494286,2.00317151 L23.5770774,9.00440559 Z" id="Left-Arrow" transform="translate(14.094262, 12.311931) scale(-1, 1) rotate(-270.000000) translate(-14.094262, -12.311931) "></path>
            </g>
        </g>
    </g>
</svg>